<svg width="1824" height="572" viewBox="0 0 1824 572" fill="none" xmlns="http://www.w3.org/2000/svg">
<path d="M573.076 375H649.376L579.076 273.3C581.476 272.4 583.876 271.4 586.176 270.3C601.576 262.9 613.276 252.5 621.276 239.3C629.276 226.1 633.176 210.9 633.176 193.7C633.176 176.2 629.176 160.9 621.276 147.7C613.276 134.5 601.676 124.1 586.176 116.7C570.776 109.3 551.476 105.5 528.376 105.5H430.176V375H495.276V281.4H514.876L573.076 375ZM495.276 160.4H523.776C532.476 160.4 539.976 161.8 546.276 164.6C552.576 167.4 557.376 171.5 560.676 176.7C563.976 182 565.676 188.3 565.676 195.8C565.676 203.3 563.976 209.6 560.676 214.9C557.376 220.2 552.476 224.1 546.276 226.8C539.976 229.5 532.476 230.8 523.776 230.8H495.276V160.4Z" fill="black"/>
<path d="M1043.48 219.6C1036.28 211.1 1026.48 204.6 1014.18 200.1C1001.88 195.6 987.876 193.4 972.176 193.4C955.476 193.4 940.076 195.6 925.976 199.9C911.876 204.3 899.776 208.9 889.776 213.8L909.376 252.7C911.976 251.2 916.076 249.2 921.676 246.7C927.276 244.3 933.976 242.1 941.476 240.3C949.076 238.5 956.776 237.6 964.776 237.6C970.176 237.6 974.976 238.1 979.176 239.1C983.376 240.1 986.976 241.8 989.776 244.1C992.576 246.4 994.676 249.2 996.176 252.4C997.576 255.6 998.276 259.4 998.276 263.8V279.4C997.876 279.2 997.576 279 997.076 278.8C990.876 275.7 983.576 273.2 974.976 271.1C966.376 269 956.676 268 945.876 268C923.776 268 906.676 272.9 894.676 282.8C882.576 292.7 876.576 306.1 876.576 323.1C876.576 335.2 879.476 345.4 885.276 353.9C891.076 362.4 898.776 368.7 908.376 373C917.976 377.2 928.476 379.4 939.776 379.4C951.076 379.4 961.576 377.4 971.376 373.4C981.176 369.4 989.076 363.5 995.276 355.7C996.376 354.2 997.376 352.7 998.376 351.1V375.5H1054.28V250.8C1054.18 238.5 1050.58 228.1 1043.48 219.6ZM992.976 324.8C989.376 330.5 984.776 334.7 979.076 337.5C973.376 340.3 967.276 341.7 960.576 341.7C955.976 341.7 951.676 340.9 947.876 339.2C943.976 337.5 940.976 335.1 938.676 331.9C936.376 328.7 935.176 324.8 935.176 320.1C935.176 315.7 936.176 312.1 938.276 309.1C940.376 306.2 943.376 303.9 947.476 302.4C951.576 300.9 957.076 300.1 964.076 300.1C973.076 300.1 981.576 301.3 989.676 303.8C992.676 304.7 995.476 305.8 998.276 307C997.876 313.9 996.076 319.9 992.976 324.8Z" fill="black"/>
<path d="M1151.98 100.4V375H1093.38V100.4H1151.98Z" fill="black"/>
<path d="M1203.98 108.6C1210.68 102.8 1218.58 99.9004 1227.88 99.9004C1237.38 99.9004 1245.38 102.8 1251.98 108.6C1258.48 114.4 1261.78 121.9 1261.78 131.1C1261.78 140.3 1258.48 147.9 1251.98 153.8C1245.48 159.7 1237.38 162.7 1227.88 162.7C1218.68 162.7 1210.68 159.7 1203.98 153.8C1197.28 147.9 1193.98 140.3 1193.98 131.1C1193.98 121.9 1197.28 114.4 1203.98 108.6ZM1255.98 197.8V375H1199.78V197.8H1255.98Z" fill="black"/>
<path d="M1614.08 197.8H1566.88V136.2H1510.98V197.8H1464.18V245.9H1510.98V375H1566.88V245.9H1614.08V197.8Z" fill="black"/>
<path d="M801.776 320.201C799.576 323.101 797.176 325.801 794.476 328.101C790.376 331.601 785.576 334.201 780.076 336.001C774.576 337.801 768.176 338.701 760.976 338.701C753.276 338.701 746.376 337.001 740.176 333.701C733.976 330.401 729.076 325.001 725.376 317.501C722.976 312.801 721.376 307.101 720.576 300.601H855.776C856.276 297.501 856.576 294.601 856.576 291.901C856.576 289.201 856.576 287.101 856.576 285.501C856.576 266.801 852.876 250.701 845.576 237.401C838.276 224.101 827.476 213.801 813.276 206.601C799.076 199.401 781.676 195.801 761.076 195.801C741.776 195.801 725.376 198.901 711.576 205.001C697.876 211.201 686.976 219.801 678.876 230.801C670.776 241.801 665.476 254.701 662.876 269.301C662.376 272.401 661.976 275.501 661.676 278.501C661.376 281.601 661.276 284.801 661.276 288.101C661.276 305.801 665.176 321.701 672.976 335.701C680.776 349.701 692.276 360.701 707.276 368.601C722.276 376.601 740.476 380.501 761.776 380.501C778.976 380.501 793.576 378.401 805.476 374.101C817.376 369.901 827.476 363.801 835.676 356.001C839.976 351.901 843.976 347.301 847.676 342.301L801.776 320.201ZM725.576 254.901C728.876 248.401 733.476 243.301 739.276 239.901C745.076 236.401 751.876 234.701 759.876 234.701C766.776 234.701 772.676 236.001 777.376 238.701C782.076 241.401 785.876 245.201 788.576 250.101C791.276 255.001 793.176 261.001 794.176 268.201H721.476C722.176 263.201 723.576 258.801 725.576 254.901Z" fill="black"/>
<path d="M1768.98 320.201C1766.78 323.101 1764.38 325.801 1761.68 328.101C1757.58 331.601 1752.78 334.201 1747.28 336.001C1741.78 337.801 1735.38 338.701 1728.18 338.701C1720.48 338.701 1713.58 337.001 1707.38 333.701C1701.18 330.401 1696.28 325.001 1692.58 317.501C1690.18 312.801 1688.58 307.101 1687.78 300.601H1822.98C1823.48 297.501 1823.78 294.601 1823.78 291.901C1823.78 289.201 1823.78 287.101 1823.78 285.501C1823.78 266.801 1820.08 250.701 1812.78 237.401C1805.48 224.101 1794.68 213.801 1780.48 206.601C1766.28 199.401 1748.88 195.801 1728.28 195.801C1708.98 195.801 1692.58 198.901 1678.78 205.001C1665.08 211.201 1654.18 219.801 1646.08 230.801C1637.98 241.801 1632.68 254.701 1630.08 269.301C1629.58 272.401 1629.18 275.501 1628.88 278.501C1628.58 281.601 1628.48 284.801 1628.48 288.101C1628.48 305.801 1632.38 321.701 1640.18 335.701C1647.98 349.701 1659.48 360.701 1674.48 368.601C1689.48 376.601 1707.68 380.501 1728.98 380.501C1746.18 380.501 1760.78 378.401 1772.68 374.101C1784.58 369.901 1794.68 363.801 1802.88 356.001C1807.18 351.901 1811.18 347.301 1814.88 342.301L1768.98 320.201ZM1692.78 254.901C1696.08 248.401 1700.68 243.301 1706.48 239.901C1712.28 236.401 1719.08 234.701 1727.08 234.701C1733.98 234.701 1739.88 236.001 1744.58 238.701C1749.28 241.401 1753.08 245.201 1755.78 250.101C1758.48 255.001 1760.38 261.001 1761.38 268.201H1688.68C1689.38 263.201 1690.78 258.801 1692.78 254.901Z" fill="black"/>
<path d="M1432.08 291.301C1425.28 283.301 1416.88 277.401 1406.98 273.801C1397.58 270.401 1388.18 267.501 1378.98 265.201C1370.08 263.001 1362.48 260.201 1356.28 257.001C1348.48 252.901 1348.48 248.701 1348.48 247.301C1348.48 244.301 1349.98 241.701 1353.08 239.401C1356.48 236.901 1360.98 235.601 1366.68 235.601C1383.08 235.601 1398.28 240.901 1411.68 251.501L1414.98 254.101L1434.78 216.401L1432.88 214.601C1416.58 199.401 1393.48 191.601 1364.38 191.601C1345.08 191.601 1328.98 196.601 1316.38 206.501C1303.58 216.601 1297.08 230.501 1297.08 248.101C1297.08 260.701 1300.58 271.401 1307.58 279.701C1314.38 287.901 1322.78 293.901 1332.58 297.501C1341.98 301.001 1351.38 304.001 1360.58 306.501C1369.48 308.901 1377.18 311.701 1383.28 314.801C1391.08 318.701 1391.08 322.901 1391.08 324.301C1391.08 328.301 1389.58 331.201 1386.28 333.401C1382.68 335.801 1377.78 337.101 1371.78 337.101C1363.48 337.101 1353.88 335.001 1343.28 330.801C1332.78 326.601 1324.98 321.901 1320.18 316.601L1317.38 313.501L1291.78 347.801L1293.08 349.801C1297.88 357.401 1307.68 364.401 1322.98 371.201C1337.88 377.801 1353.28 381.201 1368.68 381.201C1390.78 381.201 1408.78 375.901 1422.08 365.401C1435.68 354.701 1442.58 340.101 1442.58 322.101C1442.58 309.801 1439.08 299.501 1432.08 291.301Z" fill="black"/>
<path d="M279.476 0H99.0761C91.1761 0 84.2761 5.1 81.7761 12.5L0.376116 262C-1.22388 267 2.47611 272.2 7.77611 272.2H101.476C106.776 272.2 110.576 277.4 108.876 282.4L16.5761 564.9C14.6761 570.6 22.2761 574.4 25.7761 569.5L264.276 231.3C267.876 226.1 264.176 219 257.876 219H154.976C148.676 219 144.976 211.9 148.576 206.7L285.876 12.3C289.476 7.1 285.776 0 279.476 0Z" fill="url(#paint0_linear_332_183)"/>
<defs>
<linearGradient id="paint0_linear_332_183" x1="34.8904" y1="561.784" x2="34.8904" y2="-30.6909" gradientUnits="userSpaceOnUse">
<stop offset="0.1675" stop-color="#00ACFF"/>
<stop offset="0.2809" stop-color="#2193F3"/>
<stop offset="0.4826" stop-color="#556BDF"/>
<stop offset="0.6579" stop-color="#7B4ED1"/>
<stop offset="0.7982" stop-color="#923CC8"/>
<stop offset="0.8859" stop-color="#9B35C5"/>
</linearGradient>
</defs>
</svg>
